PathFileType	4	(X/Y/Z)	C:/Users/opensim2020/Desktop/walking_exp_matlab/subject02_walking09_straight_04.trc	
DataRate	CameraRate	NumFrames	NumMarkers	Units	OrigDataRate	OrigDataStartFrame	OrigNumFrames	
100.00	100.00	9	42	mm	100.00	3007	285	
Frame#	Time	LFHD			RFHD			LBHD			RBHD			C7			T10			CLAV			STRN			RBAK			LSHO			LUPA			LELB			LFRM			LWRA			LWRB			LFIN			RSHO			RUPA			RELB			RFRM			RWRA			RWRB			RFIN			LASI			RASI			LPSI			RPSI			LTHI			LKNE			LTIB			LANK			LHEE			LTOE			RTHI			RKNE			RTIB			RANK			RHEE			RTOE			*39			*40			*41			
		X1	Y1	Z1	X2	Y2	Z2	X3	Y3	Z3	X4	Y4	Z4	X5	Y5	Z5	X6	Y6	Z6	X7	Y7	Z7	X8	Y8	Z8	X9	Y9	Z9	X10	Y10	Z10	X11	Y11	Z11	X12	Y12	Z12	X13	Y13	Z13	X14	Y14	Z14	X15	Y15	Z15	X16	Y16	Z16	X17	Y17	Z17	X18	Y18	Z18	X19	Y19	Z19	X20	Y20	Z20	X21	Y21	Z21	X22	Y22	Z22	X23	Y23	Z23	X24	Y24	Z24	X25	Y25	Z25	X26	Y26	Z26	X27	Y27	Z27	X28	Y28	Z28	X29	Y29	Z29	X30	Y30	Z30	X31	Y31	Z31	X32	Y32	Z32	X33	Y33	Z33	X34	Y34	Z34	X35	Y35	Z35	X36	Y36	Z36	X37	Y37	Z37	X38	Y38	Z38	X39	Y39	Z39	X40	Y40	Z40	X41	Y41	Z41	X42	Y42	Z42	

1	0.000	1444.71252	993.12341	1730.22168	1305.10034	1014.61176	1702.17456	1475.93701	1124.77771	1663.31641	1339.26538	1157.51538	1635.21741	1407.66321	1193.69409	1516.47290	1399.05786	1248.31763	1241.01355	1424.49036	1054.83081	1448.07458	1423.47180	1003.03619	1275.93079	1345.17493	1252.00879	1340.21545	1589.39587	1127.31616	1496.48755	1694.79565	1106.87195	1308.62988	1732.93140	1070.04053	1177.22498	1758.60095	1006.85126	1062.11890	1740.55347	903.12604	972.39417	1772.73096	947.22833	956.51904	1786.85754	900.53796	912.60004	1224.74805	1111.01050	1475.77234	1149.03625	1155.16541	1285.04529	1142.94653	1156.92920	1136.96350	1129.91772	1139.85217	1017.24530	1154.49536	1103.59265	888.06696	1123.53271	1151.26794	887.44000	1123.72168	1119.65698	821.43164	1556.83606	1041.37610	974.68103	1303.88550	1004.52148	967.63696	1444.33801	1236.72754	1024.22168	1330.13794	1226.21509	1023.06989	1583.07581	1169.46753	672.68152	1542.41077	1241.58081	482.43652	1523.91077	1340.90723	313.93271	1482.76831	1380.86340	93.30510	1424.11511	1408.10364	70.27586	1531.53870	1238.17542	38.44861	1216.87341	1014.85059	670.99445	1261.52637	946.44788	476.26105	1248.50659	919.06256	292.79764	1277.79163	865.00122	105.62502	1334.00635	880.15277	45.22107	1273.29346	702.07959	90.79601	1364.15503	1103.20386	1795.05322	-3360.29468	2845.22681	1034.11926			 
2	0.010	1443.80908	985.69177	1730.12183	1304.44922	1007.39374	1701.97522	1475.38770	1116.88806	1662.52417	1338.65503	1149.64734	1634.07825	1407.08215	1185.35608	1515.60986	1398.43469	1239.97888	1240.44873	1423.99292	1046.47778	1447.30774	1423.05347	994.58594	1275.14478	1344.37415	1243.43384	1339.44849	1588.86963	1119.06079	1495.67163	1693.24500	1099.26440	1307.02441	1731.14490	1063.70569	1175.42065	1756.26563	1001.42487	1059.44543	1738.60034	898.68713	969.16016	1770.59802	942.89270	953.61584	1784.75476	896.61725	909.24261	1223.96106	1102.30103	1474.76794	1148.97363	1146.74377	1284.02979	1143.34595	1148.50671	1135.84082	1130.75269	1131.53992	1016.12823	1155.09265	1095.60754	886.86597	1124.34888	1143.15796	886.34985	1124.72241	1111.93445	820.23645	1556.49023	1033.71753	973.74664	1303.47717	995.70978	966.68536	1443.41101	1228.44214	1023.38934	1329.32031	1218.00964	1022.50006	1583.28540	1162.88428	672.60309	1542.64478	1235.50098	482.30521	1524.42175	1336.97388	315.04877	1483.38696	1380.15393	95.10411	1424.80750	1407.86316	72.72044	1531.72437	1238.15063	38.40628	1216.40735	1003.49768	671.15302	1261.86157	937.19281	475.74799	1249.78760	912.70361	291.52258	1279.86694	861.74152	103.48703	1336.46924	876.54517	43.47065	1273.76636	698.99078	86.40880	1363.49512	1096.28845	1794.31177	-3360.33057	2845.10010	1034.18311			 
3	0.020	1443.00012	978.33197	1730.19006	1303.54150	1000.04980	1701.66772	1474.68298	1109.00989	1661.81006	1338.04175	1141.81519	1633.03699	1406.38208	1176.95947	1514.83643	1397.51794	1231.38147	1239.73938	1423.51807	1037.94287	1446.70044	1423.00195	986.03351	1274.70178	1343.33191	1234.52368	1338.66052	1588.28125	1110.78259	1494.82446	1692.26123	1092.25854	1305.86584	1729.18372	1057.55383	1173.59363	1754.19019	996.55597	1057.10559	1736.63513	894.36200	966.07623	1768.14758	938.88287	950.56580	1782.25378	893.12805	905.69928	1223.51843	1093.74756	1474.07800	1148.59631	1137.69897	1283.04041	1143.56885	1139.94470	1135.00659	1130.84497	1122.87817	1014.97052	1155.86023	1087.23022	885.54022	1124.96130	1134.75549	885.33649	1125.43188	1103.59070	819.13861	1555.73169	1025.48645	972.78766	1302.94385	986.60876	965.90839	1442.46155	1219.92249	1022.54822	1328.38281	1209.50354	1021.82819	1583.13367	1155.81287	672.17181	1542.93176	1229.14075	482.24408	1524.93787	1332.74927	316.36148	1484.00464	1379.27759	96.97161	1425.72314	1407.47607	75.42039	1531.96301	1238.08911	38.39107	1216.09705	991.91644	671.41364	1261.97913	928.32092	474.87390	1250.84302	906.77551	289.95480	1282.01941	859.04834	101.72570	1339.04419	874.39795	42.30256	1274.33826	696.78546	81.69803	1362.58118	1089.34399	1793.52161	-3360.20532	2845.10693	1034.27063			 
4	0.030	1441.91138	970.86603	1730.24097	1302.46082	992.19543	1701.45996	1473.88293	1101.11841	1661.08203	1337.37292	1133.99341	1632.02051	1405.55798	1168.45117	1514.10999	1396.62036	1222.67871	1239.00745	1422.66174	1029.31531	1445.99414	1422.44714	977.32770	1274.11304	1341.99756	1225.22327	1337.72241	1587.90576	1102.65662	1494.27026	1690.47485	1084.87134	1304.29175	1726.84534	1051.56360	1171.60107	1751.70911	991.83929	1054.54358	1734.00098	890.45288	962.50214	1765.46570	935.38586	947.52454	1779.51306	890.09515	902.05115	1222.59216	1084.70984	1473.21326	1148.14612	1128.57898	1282.10791	1143.64990	1130.93164	1133.89905	1131.23035	1114.34033	1013.94904	1156.61377	1078.43262	884.65594	1125.26929	1126.14722	884.36194	1126.05176	1095.21240	818.01929	1554.88660	1017.03638	971.82703	1302.27087	977.33966	965.45428	1441.38147	1211.26721	1021.67023	1327.41907	1200.50586	1020.95941	1582.72498	1148.40125	671.70844	1543.06714	1222.26404	482.08392	1525.45093	1328.30920	317.83298	1484.74243	1378.40918	99.20804	1426.31775	1406.77576	78.06836	1532.21753	1238.05933	38.36865	1215.68445	980.29840	671.49701	1261.89917	919.93243	473.97321	1251.94141	901.64850	288.27170	1284.08167	857.12787	99.58667	1341.75330	873.00610	40.69876	1274.66125	695.49780	76.57128	1361.62732	1082.38074	1792.82690	-3360.25952	2845.12085	1034.18494			 
5	0.040	1440.82764	963.43811	1730.24866	1301.52979	984.92126	1701.22986	1472.97668	1093.25049	1660.37500	1336.47412	1125.99255	1630.91846	1404.59985	1159.89404	1513.35986	1395.50928	1213.80347	1238.26880	1422.14917	1020.73126	1445.53491	1421.76196	968.52832	1273.49866	1341.61572	1217.19116	1337.24512	1586.93591	1094.28003	1493.40479	1688.84851	1077.84106	1302.99316	1724.58081	1045.86707	1169.81396	1749.06775	987.48138	1052.01489	1731.55225	886.67859	959.12439	1762.62939	932.10181	944.34180	1776.50293	887.46960	898.28394	1221.86609	1075.83252	1472.63721	1147.47693	1119.66040	1281.14673	1143.55652	1121.72144	1132.99255	1131.30066	1104.81628	1013.05127	1157.22266	1069.47302	883.81879	1125.84973	1117.14709	883.50055	1126.70728	1086.08337	817.05084	1553.77136	1008.09680	970.83075	1301.37195	967.94495	965.21252	1440.22168	1202.33032	1020.75262	1326.33374	1191.71338	1020.19788	1582.73938	1140.91626	671.63654	1543.41663	1215.28479	482.38174	1525.83911	1323.62244	319.53958	1485.65576	1377.46338	101.91887	1427.31543	1406.31775	81.58091	1532.46863	1237.99072	38.33907	1215.15662	968.93274	671.49774	1261.42834	911.90356	472.93140	1252.92126	897.13708	286.54422	1286.11169	855.89417	97.18044	1344.41589	872.57953	39.04109	1275.52869	695.04407	71.52720	1360.01672	1075.04626	1791.86133	-3360.24390	2845.15820	1034.18518			 
6	0.050	1439.68286	956.03601	1730.28564	1300.40649	977.34363	1700.98010	1471.96118	1085.37781	1659.66406	1335.51074	1118.07544	1629.87561	1403.42834	1151.27979	1512.55627	1394.38403	1204.72839	1237.47253	1421.33472	1012.04236	1445.01282	1420.80457	959.36603	1272.91553	1340.43860	1208.14001	1336.38745	1585.94568	1085.96423	1492.58826	1687.41772	1071.24658	1301.96667	1722.13953	1040.41528	1168.12305	1746.14722	983.40942	1049.46228	1728.79236	883.50360	955.70123	1759.14990	929.14777	940.86908	1773.29211	885.24139	894.49341	1220.78381	1066.61072	1471.88147	1146.95190	1110.48254	1280.51477	1143.25720	1112.28491	1132.17798	1131.71545	1095.47693	1012.47955	1157.74902	1060.18799	882.95074	1126.08533	1107.22473	882.69043	1127.09497	1076.94971	816.21100	1552.96545	999.26874	970.20685	1300.40405	958.18384	965.30798	1438.87512	1193.14844	1019.82300	1325.15784	1182.36938	1019.25806	1582.44067	1133.01440	671.41272	1543.64478	1207.95410	482.56894	1526.24268	1318.84961	321.56866	1486.28662	1376.23535	104.60974	1427.80481	1405.02466	84.74421	1532.70056	1237.84070	38.19976	1214.53552	957.91956	671.44537	1260.88867	904.04297	471.80963	1253.74768	892.92645	284.53827	1287.93884	855.27795	94.91048	1346.07300	872.85651	36.85752	1276.65808	695.03223	66.20798	1359.07605	1068.15613	1791.25659	-3357.12451	2845.84302	1034.24829			 
7	0.060	1438.44800	948.66907	1730.34729	1299.21252	969.86102	1700.71387	1470.84326	1077.54260	1658.94348	1334.49219	1110.11743	1628.81775	1402.27271	1142.68396	1511.65698	1392.95654	1195.51294	1236.51001	1420.14819	1003.19708	1444.30115	1420.06177	950.25385	1272.47864	1339.14355	1198.91589	1335.36877	1585.08215	1077.77710	1491.91968	1685.44507	1064.39661	1300.72852	1719.48645	1035.21313	1166.41187	1742.45740	979.26923	1046.58777	1725.55066	880.80627	952.01477	1755.63171	926.66132	937.66345	1769.73486	883.42371	890.59192	1219.91833	1057.57629	1471.44189	1145.75610	1100.88086	1279.68713	1142.92822	1102.52002	1131.32788	1131.43091	1085.62659	1011.57483	1158.09387	1050.46240	882.01514	1126.22632	1097.93555	881.86200	1127.47986	1067.16248	815.58777	1551.72168	989.64850	969.50134	1299.41333	948.38879	965.55750	1437.36072	1183.71399	1018.85278	1323.74036	1172.74988	1018.25360	1582.10059	1124.85327	671.28955	1543.80713	1200.37292	482.83841	1526.28113	1313.84241	323.70013	1487.03748	1374.88684	107.55921	1428.62781	1403.95789	88.55652	1532.97144	1237.77917	38.20829	1213.83569	947.56580	670.83026	1260.44751	896.64050	470.59579	1254.54321	889.08588	282.46124	1289.06213	854.67352	92.58746	1346.56531	873.35773	35.18746	1278.45801	694.70526	60.51298	1357.74414	1061.11267	1790.37476	-3360.28271	2845.17529	1033.97546			 
8	0.070	1437.13513	941.29132	1730.50525	1297.96277	962.28076	1700.55640	1469.69727	1069.68604	1658.30530	1333.41504	1102.12402	1627.79822	1400.85181	1134.11035	1510.72253	1391.70581	1186.32971	1235.86279	1419.41956	994.34381	1443.95654	1419.07117	940.97797	1272.09033	1337.76404	1189.71326	1334.46948	1583.73840	1069.44336	1491.09412	1683.37805	1057.72949	1299.57410	1716.64490	1030.24451	1164.66370	1739.69214	976.12775	1044.35547	1722.06055	878.16058	948.17993	1752.08215	924.47040	934.50885	1766.04883	881.95410	886.78394	1218.71851	1048.29199	1470.93408	1144.71729	1090.78711	1278.88416	1142.32117	1092.55823	1130.58484	1131.21594	1075.77271	1010.82733	1158.20569	1040.68457	881.26233	1126.31201	1087.50171	881.15967	1127.53101	1056.80981	814.65942	1550.83142	980.49445	969.17352	1298.33826	938.50409	965.82538	1435.68799	1174.16101	1017.90564	1322.26733	1162.85193	1017.16229	1581.56738	1116.36987	671.05499	1543.88696	1192.43884	483.15256	1526.21155	1308.58374	325.86569	1487.54688	1373.24780	110.61230	1429.43994	1402.74170	92.64867	1533.20386	1237.74854	38.16510	1212.89709	937.68787	670.19244	1259.30054	889.35413	469.27231	1255.48352	885.10248	280.80399	1289.47363	851.74573	91.68268	1346.51538	871.85413	36.78354	1279.98267	691.73590	53.91431	1356.46680	1054.17358	1789.82568	-3360.13867	2845.15674	1034.17273			 
9	0.080	1435.77356	933.85864	1731.03528	1296.63599	954.57440	1700.81555	1468.45837	1061.70422	1657.95435	1332.10730	1093.91101	1627.10559	1399.26782	1125.58411	1509.85657	1389.99988	1176.98047	1235.47754	1418.30566	985.37012	1443.69409	1418.04297	931.67792	1271.99365	1336.13147	1180.17993	1333.80212	1582.67334	1061.35339	1490.54651	1681.22339	1051.08643	1298.45813	1713.47083	1025.39978	1162.84058	1736.44849	972.99152	1041.99011	1719.11426	875.91046	945.14038	1748.49402	922.62604	931.54828	1762.09058	880.72900	882.91101	1217.22388	1038.77832	1470.41382	1143.51294	1081.24646	1278.37512	1141.38391	1082.45410	1129.92188	1130.67407	1065.03186	1009.83044	1158.44495	1030.41882	880.73828	1125.99255	1077.44836	880.43011	1127.74011	1046.43140	813.92621	1549.52661	970.58533	968.88318	1297.12842	928.78217	966.20093	1433.83606	1164.50244	1016.98114	1320.56934	1152.75537	1016.29199	1581.35376	1107.61133	671.02307	1543.89917	1184.16455	483.57233	1526.13586	1302.93079	328.29489	1488.37244	1371.45422	114.11958	1430.32178	1400.99597	97.06903	1533.51331	1237.68469	38.29766	1211.66821	928.91193	669.81256	1257.78442	882.00830	468.83521	1256.35413	879.40692	280.24457	1288.00916	845.42041	92.07404	1344.26636	868.48462	39.19793	1280.98547	685.76001	49.68826	1354.68909	1047.03394	1789.26001	-3360.20654	2845.10791	1034.24658			 
